<?xml version="1.0" encoding="UTF-8"?>
<svg id="Capa_1" data-name="Capa 1" xmlns="http://www.w3.org/2000/svg" viewBox="0 0 1120 346.68085">
  <defs>
    <style>
      .cls-1 {
        fill: #83007d;
      }
    </style>
  </defs>
  <g>
    <g>
      <path class="cls-1" d="M336.6964,41.4371v243.48748c0,5.60474-2.27199,10.67267-5.9441,14.34478-3.67211,3.67211-8.74005,5.94405-14.34473,5.94405V68.4946l-20.29313,6.76008-20.28894,6.76438-20.29313,6.76438-20.28873,6.76008-20.29313,6.76438-20.28894-6.76438-20.28873-6.76008-20.29313-6.76438-20.28894-6.76438-20.29313-6.76008v236.71881c-5.60049,0-10.67692-2.27194-14.34473-5.94405-3.67211-3.67211-5.9441-8.74005-5.9441-14.34478V41.4371l20.28883,6.76438,20.29313,6.76438,20.28894,6.76438h.00419l20.28894,6.76438,20.28873,6.76008,20.28894,6.76438,20.29313-6.76438,20.28873-6.76438,20.28464-6.76008h.00849v-.0043l20.28894-6.76008,20.29313-6.76438,20.28883-6.76438Z"/>
      <path class="cls-1" d="M154.07973,123.6919v181.52151h-20.28894V95.54781c4.28624,1.42589,8.07432,3.76656,11.18379,6.76008,5.43734,5.22682,8.79583,12.45074,9.08365,20.28453v.0086c.0129.36505.0215.72583.0215,1.09088Z"/>
      <path class="cls-1" d="M296.11444,95.54781v20.28883l-20.28894,6.76008v.0043h-.00849l-20.28464,6.76008-40.57766,13.52875c0-7.82949,3.23833-15.09208,8.63267-20.28883,2.95061-2.83888,6.54534-5.05934,10.61254-6.4165l1.04372-.34788,20.28873-6.76438,20.29313-6.76438h.0044l20.28453-6.76008Z"/>
      <path class="cls-1" d="M296.11444,136.12977v169.08364h-20.28894v-142.03044h-.00849l-20.28464,6.76008-40.57766,13.52873c0-7.82949,3.23833-15.09203,8.63267-20.2888,2.95061-2.83888,6.54534-5.05931,10.61254-6.4165l1.04372-.34788,20.28873-6.76438,20.29313-6.76438h.0044l20.28453-6.76008Z"/>
    </g>
    <path class="cls-1" d="M238.07266,301.58454l-3.6194-3.91191c-7.85151,5.04764-17.10496,7.57113-27.76102,7.57113-7.29074,0-13.67005-1.16994-19.13794-3.50518-5.46789-2.33524-9.67436-5.67801-12.61876-10.02435-2.9444-4.347-4.4166-9.41585-4.4166-15.21251,0-6.35545,1.7042-11.61321,5.1179-15.77329,3.41105-4.15809,8.38776-8.10804,14.93146-11.84786-3.5529-4.01756-6.23879-7.73286-8.06164-11.1459-1.82285-3.41105-2.73428-6.98649-2.73428-10.72631,0-7.10182,2.47576-12.75863,7.43126-16.9651,4.95351-4.20581,11.63708-6.30905,20.04937-6.30905,8.50443,0,15.30465,2.10324,20.40002,6.30905,5.09404,4.20648,7.64139,9.86328,7.64139,16.9651,0,5.60841-1.3562,10.32926-4.06595,14.16123-2.71174,3.83395-7.33913,7.75938-13.88018,11.77694l16.12328,17.94679c1.08178-2.36327,1.98325-4.87251,2.70441-7.52778,1.81644-6.68803,7.783-11.40003,14.71331-11.40003h6.71605c.14062,0,.25146.12279.23835.2628-1.2406,13.25205-4.97232,24.38062-11.19257,33.38635l17.88899,19.57131-18.26026-.01082c-3.11635-.00185-6.09077-1.30314-8.20719-3.59059ZM222.81619,284.77348l-20.89053-23.27415c-4.02021,2.2431-6.96461,4.46499-8.8332,6.6597-1.87124,2.19736-2.80454,4.97738-2.80454,8.34269,0,4.11434,1.4722,7.361,4.4166,9.74396,2.9444,2.38363,6.94075,3.57544,11.98773,3.57544,6.16919,0,11.54295-1.68233,16.12394-5.04764ZM201.71487,221.33033c-1.45033,1.45033-2.17284,3.34278-2.17284,5.67801,0,2.24376.51239,4.34634,1.5418,6.30971,1.02742,1.96271,2.71041,4.34634,5.04764,7.15021,3.45679-2.14897,5.8888-4.20581,7.29074-6.16919,1.40194-1.96271,2.10324-4.39208,2.10324-7.29074,0-2.33524-.7709-4.22769-2.31336-5.67801-1.54246-1.44834-3.52904-2.1735-5.95906-2.1735-2.2431,0-4.08981.72516-5.53815,2.1735Z"/>
  </g>
  <g>
    <path class="cls-1" d="M385.41616,155.94898c-5.42675-4.82017-8.13857-11.93887-8.13857-21.35504v-23.98957c0-9.41669,2.71182-16.53539,8.13857-21.35557,5.42519-4.82017,13.30769-7.23052,23.64566-7.23052,7.18498,0,13.06877,1.21578,17.6519,3.64309,4.58131,2.42943,8.22956,6.07305,10.9432,10.93032l-11.10803,7.84689c-2.2735-3.58744-4.63824-6.16579-7.09372-7.73507-2.45756-1.56927-5.92175-2.35417-10.39335-2.35417-5.64669,0-9.77097,1.3647-12.37255,4.09198-2.60367,2.72887-3.90433,6.78216-3.90433,12.16305v23.98957c0,5.38089,1.30066,9.43577,3.90433,12.16305,2.60159,2.72887,6.72586,4.09145,12.37255,4.09145,4.83921,0,8.59587-.84055,11.27311-2.52218,2.67568-1.68163,5.07631-4.3893,7.2037-8.12725l10.99806,8.29526c-2.34733,3.43851-4.76693,6.20395-7.25881,8.29579-2.49344,2.09289-5.51775,3.68178-9.07319,4.764-3.55726,1.08275-7.93761,1.62545-13.14286,1.62545-10.33797,0-18.22047-2.40982-23.64566-7.23052Z"/>
    <path class="cls-1" d="M457.00339,155.94898c-5.38906-4.82017-8.08372-11.93887-8.08372-21.35504v-23.98957c0-9.41669,2.69466-16.53539,8.08372-21.35557,5.3888-4.82017,13.17874-7.23052,23.37061-7.23052,10.19057,0,17.98181,2.41035,23.37087,7.23052s8.08372,11.93887,8.08372,21.35557v23.98957c0,9.41616-2.69466,16.53486-8.08372,21.35504-5.38906,4.8207-13.1803,7.23052-23.37087,7.23052-10.19187,0-17.98181-2.40982-23.37061-7.23052ZM492.19696,146.64464c2.74951-2.80254,4.12427-6.81873,4.12427-12.0507v-23.98957c0-5.23038-1.37476-9.24869-4.12427-12.05123s-6.69154-4.20381-11.82296-4.20381c-5.13298,0-9.07319,1.40127-11.8227,4.20381s-4.12427,6.82085-4.12427,12.05123v23.98957c0,5.23197,1.37476,9.24816,4.12427,12.0507s6.68972,4.20381,11.8227,4.20381c5.13142,0,9.07345-1.40127,11.82296-4.20381Z"/>
    <path class="cls-1" d="M527.22467,81.97635h8.0286c4.03146,0,7.25881.58025,9.67841,1.7402,2.41934,1.15995,4.50904,2.99832,6.26882,5.51018,1.75952,2.51405,3.81178,6.28458,6.15885,11.31049l6.37879,13.57281,6.37931-13.57281c2.34551-5.02591,4.39881-8.79644,6.15885-11.31049,1.75952-2.51186,3.84922-4.35023,6.26856-5.51018,2.41986-1.15995,5.64513-1.7402,9.67841-1.7402h8.0286v81.2043h-14.07774v-64.15109c-.87976,0-1.61342.42559-2.1994,1.27567-.58755.85228-1.46731,2.35994-2.63928,4.52463l-17.5973,34.45358-17.59678-34.45358c-1.17379-2.16469-2.05356-3.67236-2.63954-4.52463-.58755-.85008-1.31964-1.31406-2.19966-1.39194v64.26736h-14.07748v-81.2043Z"/>
    <path class="cls-1" d="M623.89779,156.62008c-5.13298-4.44767-7.69895-10.62449-7.69895-18.53261v-56.11112h15.50761v56.11112c0,8.43921,4.98479,12.65935,14.95698,12.65935,9.97063,0,14.9575-4.22014,14.9575-12.65935v-56.11112h15.50709v56.11112c0,7.90812-2.56701,14.08493-7.69843,18.53261-5.13298,4.44767-12.7217,6.67178-22.76616,6.67178-10.04602,0-17.63422-2.22411-22.76564-6.67178Z"/>
    <path class="cls-1" d="M756.42353,81.97635v62.06318c0,6.26429-1.20993,11.02091-3.62928,14.26878-2.41934,3.24841-6.30652,4.87235-11.65788,4.87235h-10.88783l-22.65593-55.33491v55.33491h-14.51762v-81.2043h17.48707l27.93502,67.28378h.21994c1.24581,0,2.08917-.56051,2.52905-1.68207.4404-1.12046.66034-3.15024.66034-6.09043v-59.51128h14.5171Z"/>
    <path class="cls-1" d="M773.79985,81.97635h15.50709v81.2043h-15.50709v-81.2043Z"/>
    <path class="cls-1" d="M808.00239,81.97635h28.59484c8.65047,0,15.48837,1.31626,20.51112,3.94438,5.02171,2.63032,8.65099,6.86428,10.88835,12.70243,2.2358,5.84034,3.35422,13.82509,3.35422,23.95533,0,10.13244-1.11842,18.11718-3.35422,23.95533-2.23736,5.84034-5.86663,10.0743-10.88835,12.70243-5.02275,2.63032-11.86066,3.94438-20.51112,3.94438h-28.59484v-81.2043ZM836.59723,150.42009c4.83921,0,8.65047-.88847,11.43794-2.66816,2.78539-1.77804,4.78409-4.6782,5.99402-8.70046,1.20993-4.02062,1.81464-9.5127,1.81464-16.47296s-.60471-12.4507-1.81464-16.47296c-1.20993-4.02007-3.20863-6.92022-5.99402-8.70046-2.78747-1.77804-6.59873-2.66816-11.43794-2.66816h-13.08775v55.68317h13.08775Z"/>
    <path class="cls-1" d="M929.16119,144.59978h-30.13442l-5.16886,18.58087h-15.50761l18.80672-63.6076c1.31964-4.5598,2.71208-8.09349,4.17939-10.60109,1.46575-2.50813,3.20655-4.29249,5.22397-5.35794,2.01586-1.06329,4.52671-1.59574,7.53361-1.59574,3.00585,0,5.49903.53245,7.47901,1.59574,1.97946,1.06544,3.72027,2.84981,5.22397,5.35794,1.50163,2.50759,2.91434,6.04129,4.23398,10.60109l18.80672,63.6076h-15.50709l-5.16938-18.58087ZM925.75185,132.63092l-9.23801-32.8299c-.51423-1.97514-1.32016-2.96352-2.41986-2.96352s-1.90719.98838-2.41934,2.96352l-9.23853,32.8299h23.31575Z"/>
    <path class="cls-1" d="M963.44263,81.94171h28.59484c8.65099,0,15.48837,1.31626,20.51164,3.94438,5.02119,2.63032,8.65047,6.86428,10.88783,12.70243,2.2358,5.84034,3.35422,13.82509,3.35422,23.95533,0,10.13244-1.11842,18.11718-3.35422,23.95533-2.23736,5.84034-5.86663,10.0743-10.88783,12.70243-5.02327,2.63032-11.86066,3.94438-20.51164,3.94438h-28.59484v-81.2043ZM992.03747,150.38545c4.83921,0,8.65099-.88847,11.43794-2.66816,2.78591-1.77804,4.78409-4.6782,5.99402-8.70046,1.20993-4.02062,1.81464-9.5127,1.81464-16.47296s-.60471-12.4507-1.81464-16.47296c-1.20993-4.02007-3.20811-6.92022-5.99402-8.70046-2.78695-1.77804-6.59873-2.66816-11.43794-2.66816h-13.08775v55.68317h13.08775Z"/>
  </g>
  <g>
    <path class="cls-1" d="M377.27759,183.47125h8.0286c4.03172,0,7.25855.57993,9.67841,1.73925,2.41934,1.15932,4.50904,2.99668,6.26856,5.50716,1.76004,2.51267,3.81178,6.28114,6.15937,11.30429l6.37879,13.56537,6.37879-13.56537c2.34551-5.02316,4.39933-8.79162,6.15885-11.30429,1.75952-2.51048,3.84922-4.34785,6.26908-5.50716,2.41934-1.15932,5.64461-1.73925,9.67789-1.73925h8.0286v81.15981h-14.07722v-64.11594c-.87976,0-1.61394.42536-2.19992,1.27497-.58755.85181-1.46731,2.35865-2.63928,4.52216l-17.59678,34.43471-17.59678-34.43471c-1.17405-2.16351-2.05382-3.67035-2.6398-4.52216-.58755-.84962-1.31964-1.31334-2.1994-1.39118v64.23215h-14.07774v-81.15981Z"/>
    <path class="cls-1" d="M519.60958,264.63362l-5.52704-6.05277c-6.15885,4.03365-13.4174,6.05021-21.77617,6.05021-5.71897,0-10.723-.93492-15.0121-2.80104-4.2891-1.86612-7.58872-4.53739-9.89835-8.01062-2.30963-3.47376-3.46445-7.52436-3.46445-12.15656,0-5.07874,1.3368-9.2803,4.01456-12.60469,2.67568-3.32279,6.57949-6.47926,11.71247-9.46782-2.78695-3.2105-4.8938-6.17945-6.32367-8.90687-1.42987-2.72582-2.14481-5.58301-2.14481-8.57157,0-5.67518,1.94203-10.19562,5.8292-13.55708,3.88561-3.36093,9.1283-5.04166,15.72703-5.04166,6.671,0,12.00521,1.68073,16.00209,5.04166,3.99584,3.36146,5.99402,7.8819,5.99402,13.55708,0,4.48177-1.06382,8.25428-3.18939,11.31646-2.12713,3.06377-5.75692,6.20064-10.88783,9.41114l12.64735,14.34156c1.97998-4.40656,3.18991-9.44822,3.6298-15.12552h15.50709c-.95359,10.68241-3.88717,19.64543-8.79865,26.88957l14.10039,15.68314-18.14153.00536ZM504.95424,248.27293l-16.38685-18.59875c-3.15352,1.7925-5.46315,3.56804-6.9289,5.32187-1.46783,1.75595-2.19992,3.9775-2.19992,6.66678,0,3.28783,1.15482,5.88229,3.46445,7.78656,2.30963,1.90479,5.44443,2.85719,9.40336,2.85719,4.83921,0,9.05447-1.34437,12.64787-4.03365ZM488.40204,197.57451c-1.13766,1.15898-1.70441,2.67127-1.70441,4.53739,0,1.79303.40192,3.47323,1.20941,5.04219.80593,1.56843,2.12609,3.47323,3.95945,5.71385,2.71156-1.71728,4.61927-3.36093,5.71897-4.9299,1.0997-1.56843,1.64981-3.50978,1.64981-5.82614,0-1.86612-.60471-3.37841-1.81464-4.53739-1.20993-1.15739-2.76823-1.73688-4.67438-1.73688-1.75952,0-3.20811.57949-4.34421,1.73688Z"/>
    <path class="cls-1" d="M547.9472,208.32053c0-8.05424,2.12557-14.20944,6.37879-18.46613,4.25166-4.25453,11.25439-6.38315,21.00664-6.38315h13.63735c6.6814,0,12.09774,5.6136,12.09774,12.53833h0s-25.7351.00001-25.7351.00001c-4.03328,0-7.02197.98886-8.96348,2.96389-1.94359,1.97719-2.91486,5.09197-2.91486,9.34704v11.0564h32.77423v12.53835h-32.77423v32.71835h-15.50709v-56.31309Z"/>
  </g>
  <path class="cls-1" d="M699.92718,226.99707c-1.17647-6.41227-7.64893-10.31203-13.96663-8.64568-.77299.21915-1.4904.54545-2.15182,1.00514-1.8209,1.04792-2.96759,2.43074-3.98133,3.65921-1.20247,1.45161-2.2376,2.71007-4.31623,3.37128-4.84889,2.13463-10.35061-.60983-12.05135-5.59189-.59704-1.67914-.73881-3.54744-.42948-5.38134-.58844,1.76093-.76439,3.7022-.41229,5.60049,1.15969,6.41647,7.62775,10.33342,13.94544,8.67986,3.05357-.97074,4.59116-2.82604,5.94399-4.46659.90196-1.09531,1.75233-2.12603,3.03218-2.86043.53245-.29632,1.00073-.53686,1.486-.70861,4.8403-2.15182,10.35061.57985,12.05974,5.56169.60145,1.67516.7474,3.54765.44249,5.37736.58425-1.75673.75579-3.7022.39929-5.60049ZM699.92718,226.99707c-1.17647-6.41227-7.64893-10.31203-13.96663-8.64568-.77299.21915-1.4904.54545-2.15182,1.00514-1.8209,1.04792-2.96759,2.43074-3.98133,3.65921-1.20247,1.45161-2.2376,2.71007-4.31623,3.37128-4.84889,2.13463-10.35061-.60983-12.05135-5.59189-.59704-1.67914-.73881-3.54744-.42948-5.38134-.58844,1.76093-.76439,3.7022-.41229,5.60049,1.15969,6.41647,7.62775,10.33342,13.94544,8.67986,3.05357-.97074,4.59116-2.82604,5.94399-4.46659.90196-1.09531,1.75233-2.12603,3.03218-2.86043.53245-.29632,1.00073-.53686,1.486-.70861,4.8403-2.15182,10.35061.57985,12.05974,5.56169.60145,1.67516.7474,3.54765.44249,5.37736.58425-1.75673.75579-3.7022.39929-5.60049ZM699.92718,226.99707c-1.17647-6.41227-7.64893-10.31203-13.96663-8.64568-.77299.21915-1.4904.54545-2.15182,1.00514-1.8209,1.04792-2.96759,2.43074-3.98133,3.65921-1.20247,1.45161-2.2376,2.71007-4.31623,3.37128-4.84889,2.13463-10.35061-.60983-12.05135-5.59189-.59704-1.67914-.73881-3.54744-.42948-5.38134-.58844,1.76093-.76439,3.7022-.41229,5.60049,1.15969,6.41647,7.62775,10.33342,13.94544,8.67986,3.05357-.97074,4.59116-2.82604,5.94399-4.46659.90196-1.09531,1.75233-2.12603,3.03218-2.86043.53245-.29632,1.00073-.53686,1.486-.70861,4.8403-2.15182,10.35061.57985,12.05974,5.56169.60145,1.67516.7474,3.54765.44249,5.37736.58425-1.75673.75579-3.7022.39929-5.60049ZM699.92718,226.99707c-1.17647-6.41227-7.64893-10.31203-13.96663-8.64568-.77299.21915-1.4904.54545-2.15182,1.00514-1.8209,1.04792-2.96759,2.43074-3.98133,3.65921-1.20247,1.45161-2.2376,2.71007-4.31623,3.37128-4.84889,2.13463-10.35061-.60983-12.05135-5.59189-.59704-1.67914-.73881-3.54744-.42948-5.38134-.58844,1.76093-.76439,3.7022-.41229,5.60049,1.15969,6.41647,7.62775,10.33342,13.94544,8.67986,3.05357-.97074,4.59116-2.82604,5.94399-4.46659.90196-1.09531,1.75233-2.12603,3.03218-2.86043.53245-.29632,1.00073-.53686,1.486-.70861,4.8403-2.15182,10.35061.57985,12.05974,5.56169.60145,1.67516.7474,3.54765.44249,5.37736.58425-1.75673.75579-3.7022.39929-5.60049ZM699.92718,226.99707c-1.17647-6.41227-7.64893-10.31203-13.96663-8.64568-.77299.21915-1.4904.54545-2.15182,1.00514-1.8209,1.04792-2.96759,2.43074-3.98133,3.65921-1.20247,1.45161-2.2376,2.71007-4.31623,3.37128-4.84889,2.13463-10.35061-.60983-12.05135-5.59189-.59704-1.67914-.73881-3.54744-.42948-5.38134-.58844,1.76093-.76439,3.7022-.41229,5.60049,1.15969,6.41647,7.62775,10.33342,13.94544,8.67986,3.05357-.97074,4.59116-2.82604,5.94399-4.46659.90196-1.09531,1.75233-2.12603,3.03218-2.86043.53245-.29632,1.00073-.53686,1.486-.70861,4.8403-2.15182,10.35061.57985,12.05974,5.56169.60145,1.67516.7474,3.54765.44249,5.37736.58425-1.75673.75579-3.7022.39929-5.60049ZM699.92718,226.99707c-1.17647-6.41227-7.64893-10.31203-13.96663-8.64568-.77299.21915-1.4904.54545-2.15182,1.00514-1.8209,1.04792-2.96759,2.43074-3.98133,3.65921-1.20247,1.45161-2.2376,2.71007-4.31623,3.37128-4.84889,2.13463-10.35061-.60983-12.05135-5.59189-.59704-1.67914-.73881-3.54744-.42948-5.38134-.58844,1.76093-.76439,3.7022-.41229,5.60049,1.15969,6.41647,7.62775,10.33342,13.94544,8.67986,3.05357-.97074,4.59116-2.82604,5.94399-4.46659.90196-1.09531,1.75233-2.12603,3.03218-2.86043.53245-.29632,1.00073-.53686,1.486-.70861,4.8403-2.15182,10.35061.57985,12.05974,5.56169.60145,1.67516.7474,3.54765.44249,5.37736.58425-1.75673.75579-3.7022.39929-5.60049ZM620.76493,183.47299v81.16392h385.52206c11.20518,0,20.28894-9.08355,20.28894-20.28873v-60.87519h-405.811ZM699.52789,232.59756c-1.8337,6.43346-10.7457,11.36833-17.10199,11.71183-15.25109.82479-26.15555-15.13072-19.39557-28.89561.27493-1.07811,1.37443-2.72286,2.06584-3.63342,6.76018-8.87321,19.56733-10.71131,28.48772-3.87396,7.41699,5.69067,10.28162,16.25162,5.94399,24.69115ZM793.59374,234.2767c-7.69213,13.17665-26.66241,13.48576-34.72405.51966-8.12161-13.06488.7474-30.07669,15.9899-30.99584,16.04526-.96634,26.88974,16.50515,18.73415,30.47618ZM883.42011,244.34378l-12.57542-9.32828-12.61358,9.32409,4.59976-15.41844-12.22772-9.55183h15.11793l5.1752-15.60739,4.76291,15.60739h15.52602l-12.2273,9.55602,4.46219,15.41844ZM985.99386,244.34378h-40.57745v-6.6828h40.57745v6.6828ZM985.99386,230.73786h-40.57745v-13.37h40.57745v13.37ZM985.99386,210.44473h-40.57745v-6.6828h40.57745v6.6828ZM699.92718,226.99707c-1.17647-6.41227-7.64893-10.31203-13.96663-8.64568-.77299.21915-1.4904.54545-2.15182,1.00514-1.8209,1.04792-2.96759,2.43074-3.98133,3.65921-1.20247,1.45161-2.2376,2.71007-4.31623,3.37128-4.84889,2.13463-10.35061-.60983-12.05135-5.59189-.59704-1.67914-.73881-3.54744-.42948-5.38134-.58844,1.76093-.76439,3.7022-.41229,5.60049,1.15969,6.41647,7.62775,10.33342,13.94544,8.67986,3.05357-.97074,4.59116-2.82604,5.94399-4.46659.90196-1.09531,1.75233-2.12603,3.03218-2.86043.53245-.29632,1.00073-.53686,1.486-.70861,4.8403-2.15182,10.35061.57985,12.05974,5.56169.60145,1.67516.7474,3.54765.44249,5.37736.58425-1.75673.75579-3.7022.39929-5.60049ZM699.92718,226.99707c-1.17647-6.41227-7.64893-10.31203-13.96663-8.64568-.77299.21915-1.4904.54545-2.15182,1.00514-1.8209,1.04792-2.96759,2.43074-3.98133,3.65921-1.20247,1.45161-2.2376,2.71007-4.31623,3.37128-4.84889,2.13463-10.35061-.60983-12.05135-5.59189-.59704-1.67914-.73881-3.54744-.42948-5.38134-.58844,1.76093-.76439,3.7022-.41229,5.60049,1.15969,6.41647,7.62775,10.33342,13.94544,8.67986,3.05357-.97074,4.59116-2.82604,5.94399-4.46659.90196-1.09531,1.75233-2.12603,3.03218-2.86043.53245-.29632,1.00073-.53686,1.486-.70861,4.8403-2.15182,10.35061.57985,12.05974,5.56169.60145,1.67516.7474,3.54765.44249,5.37736.58425-1.75673.75579-3.7022.39929-5.60049ZM699.92718,226.99707c-1.17647-6.41227-7.64893-10.31203-13.96663-8.64568-.77299.21915-1.4904.54545-2.15182,1.00514-1.8209,1.04792-2.96759,2.43074-3.98133,3.65921-1.20247,1.45161-2.2376,2.71007-4.31623,3.37128-4.84889,2.13463-10.35061-.60983-12.05135-5.59189-.59704-1.67914-.73881-3.54744-.42948-5.38134-.58844,1.76093-.76439,3.7022-.41229,5.60049,1.15969,6.41647,7.62775,10.33342,13.94544,8.67986,3.05357-.97074,4.59116-2.82604,5.94399-4.46659.90196-1.09531,1.75233-2.12603,3.03218-2.86043.53245-.29632,1.00073-.53686,1.486-.70861,4.8403-2.15182,10.35061.57985,12.05974,5.56169.60145,1.67516.7474,3.54765.44249,5.37736.58425-1.75673.75579-3.7022.39929-5.60049ZM699.92718,226.99707c-1.17647-6.41227-7.64893-10.31203-13.96663-8.64568-.77299.21915-1.4904.54545-2.15182,1.00514-1.8209,1.04792-2.96759,2.43074-3.98133,3.65921-1.20247,1.45161-2.2376,2.71007-4.31623,3.37128-4.84889,2.13463-10.35061-.60983-12.05135-5.59189-.59704-1.67914-.73881-3.54744-.42948-5.38134-.58844,1.76093-.76439,3.7022-.41229,5.60049,1.15969,6.41647,7.62775,10.33342,13.94544,8.67986,3.05357-.97074,4.59116-2.82604,5.94399-4.46659.90196-1.09531,1.75233-2.12603,3.03218-2.86043.53245-.29632,1.00073-.53686,1.486-.70861,4.8403-2.15182,10.35061.57985,12.05974,5.56169.60145,1.67516.7474,3.54765.44249,5.37736.58425-1.75673.75579-3.7022.39929-5.60049ZM699.92718,226.99707c-1.17647-6.41227-7.64893-10.31203-13.96663-8.64568-.77299.21915-1.4904.54545-2.15182,1.00514-1.8209,1.04792-2.96759,2.43074-3.98133,3.65921-1.20247,1.45161-2.2376,2.71007-4.31623,3.37128-4.84889,2.13463-10.35061-.60983-12.05135-5.59189-.59704-1.67914-.73881-3.54744-.42948-5.38134-.58844,1.76093-.76439,3.7022-.41229,5.60049,1.15969,6.41647,7.62775,10.33342,13.94544,8.67986,3.05357-.97074,4.59116-2.82604,5.94399-4.46659.90196-1.09531,1.75233-2.12603,3.03218-2.86043.53245-.29632,1.00073-.53686,1.486-.70861,4.8403-2.15182,10.35061.57985,12.05974,5.56169.60145,1.67516.7474,3.54765.44249,5.37736.58425-1.75673.75579-3.7022.39929-5.60049Z"/>
</svg>